HIERARCHY
ROOT SpineBase
{
  OFFSET 0.000000 0.000000 0.000000
  CHANNELS 6 Xposition Yposition Zposition Zrotation Xrotation Yrotation
  JOINT SpineMid
  {
    OFFSET 0.000000 31.795587 0.000000
    CHANNELS 3 Zrotation Xrotation Yrotation
    JOINT SpineShoulder
    {
      OFFSET 0.152157 23.602673 -0.863186
      CHANNELS 3 Zrotation Xrotation Yrotation
      JOINT Neck
      {
        OFFSET 0.109983 7.797491 -0.636699
        CHANNELS 3 Zrotation Xrotation Yrotation
        JOINT Head
        {
          OFFSET -5.925882 13.839355 -1.491116
          CHANNELS 3 Zrotation Xrotation Yrotation
          End Site
          {
            OFFSET 0 0 0
          }
        }
      }
      JOINT ShoulderLeft
      {
        OFFSET -17.777845 -6.784259 6.954903
        CHANNELS 3 Zrotation Xrotation Yrotation
        JOINT ElbowLeft
        {
          OFFSET -1.263454 -27.238324 2.202255
          CHANNELS 3 Zrotation Xrotation Yrotation
          JOINT WristLeft
          {
            OFFSET 0.160201 -22.377505 -2.815352
            CHANNELS 3 Zrotation Xrotation Yrotation
            JOINT HandLeft
            {
              OFFSET -0.770463 -7.079390 -0.177354
              CHANNELS 3 Zrotation Xrotation Yrotation
              JOINT HandTipLeft
              {
                OFFSET 0.647895 -6.038938 -1.516422
                CHANNELS 3 Zrotation Xrotation Yrotation
                End Site
                {
                  OFFSET 0 0 0
                }
              }
              JOINT ThumbLeft
              {
                OFFSET 3.702776 0.897730 -2.348341
                CHANNELS 3 Zrotation Xrotation Yrotation
                End Site
                {
                  OFFSET 0 0 0
                }
              }
            }
          }
        }
      }
      JOINT ShoulderRight
      {
        OFFSET 14.871657 -3.936656 -8.555292
        CHANNELS 3 Zrotation Xrotation Yrotation
        JOINT ElbowRight
        {
          OFFSET 7.476277 -26.550743 -0.858537
          CHANNELS 3 Zrotation Xrotation Yrotation
          JOINT WristRight
          {
            OFFSET 1.439453 -24.324492 -4.090399
            CHANNELS 3 Zrotation Xrotation Yrotation
            JOINT HandRight
            {
              OFFSET -1.021550 -7.380781 -0.388555
              CHANNELS 3 Zrotation Xrotation Yrotation
              JOINT HandTipRight
              {
                OFFSET 0.544706 -8.973370 0.410096
                CHANNELS 3 Zrotation Xrotation Yrotation
                End Site
                {
                  OFFSET 0 0 0
                }
              }
              JOINT ThumbRight
              {
                OFFSET 4.041634 1.153743 -0.495759
                CHANNELS 3 Zrotation Xrotation Yrotation
                End Site
                {
                  OFFSET 0 0 0
                }
              }
            }
          }
        }
      }
    }
  }
  JOINT HipLeft
  {
    OFFSET -6.068601 -0.244205 -0.978018
    CHANNELS 3 Zrotation Xrotation Yrotation
    JOINT KneeLeft
    {
      OFFSET 3.079912 -33.825722 6.175112
      CHANNELS 3 Zrotation Xrotation Yrotation
      JOINT AnkleLeft
      {
        OFFSET 6.044995 -36.059590 9.261172
        CHANNELS 3 Zrotation Xrotation Yrotation
        JOINT FootLeft
        {
          OFFSET -4.177197 -3.434952 -14.075113
          CHANNELS 3 Zrotation Xrotation Yrotation
          End Site
          {
            OFFSET 0 0 0
          }
        }
      }
    }
  }
  JOINT HipRight
  {
    OFFSET 7.386393 2.011136 -6.340278
    CHANNELS 3 Zrotation Xrotation Yrotation
    JOINT KneeRight
    {
      OFFSET 9.038566 -35.242412 1.989752
      CHANNELS 3 Zrotation Xrotation Yrotation
      JOINT AnkleRight
      {
        OFFSET 6.335945 -36.999364 6.977463
        CHANNELS 3 Zrotation Xrotation Yrotation
        JOINT FootRight
        {
          OFFSET -0.997791 -7.666158 -7.197811
          CHANNELS 3 Zrotation Xrotation Yrotation
          End Site
          {
            OFFSET 0 0 0
          }
        }
      }
    }
  }
}
MOTION
Frames: 13
Frame Time: 0.033333
-56.791520 81.707579 319.273345 -0.000000 0.000000 21.728916 -0.000000 0.000000 -21.728916 -0.000000 0.000000 0.000000 -0.000000 0.000000 0.000000 0.000000 0.000000 0.000000 -0.000000 0.000000 0.000000 -0.000000 0.000000 0.000000 -0.000000 0.000000 0.000000 -0.000000 0.000000 0.000000 0.000000 0.000000 0.000000 0.000000 0.000000 0.000000 -0.000000 0.000000 0.000000 -0.000000 0.000000 0.000000 -0.000000 0.000000 0.000000 -0.000000 0.000000 0.000000 0.000000 0.000000 0.000000 0.000000 0.000000 0.000000 -0.000000 0.000000 -21.728916 -0.000000 0.000000 0.000000 -0.000000 0.000000 0.000000 0.000000 0.000000 0.000000 -0.000000 0.000000 -21.728916 -0.000000 0.000000 0.000000 -0.000000 0.000000 0.000000 0.000000 0.000000 0.000000
-56.831195 81.704734 319.380103 -0.078843 -0.079430 22.298090 0.103085 0.043576 -22.298183 -0.000000 0.000000 0.000000 -0.000000 0.000000 0.000000 0.000000 0.000000 0.000000 -0.000000 0.000000 0.000000 -0.000000 0.000000 0.000000 3.658507 1.434182 -0.294514 -3.652258 -1.450039 0.202474 0.000000 0.000000 0.000000 0.000000 0.000000 0.000000 -0.000000 0.000000 0.000000 -0.000000 0.000000 0.000000 -0.245197 -1.578085 0.228060 -0.882906 3.023567 -0.153819 0.000000 0.000000 0.000000 0.000000 0.000000 0.000000 0.103085 0.043576 -22.298183 -0.000000 0.000000 0.000000 3.116781 -8.002918 -4.126460 0.000000 0.000000 0.000000 0.103085 0.043576 -22.298183 -0.000000 0.000000 0.000000 -4.540666 10.611147 3.022435 0.000000 0.000000 0.000000
-56.861759 81.697104 319.470588 -0.146998 -0.145315 22.793762 0.191815 0.077017 -22.794078 -0.000000 0.000000 0.000000 -0.000000 0.000000 0.000000 0.000000 0.000000 0.000000 -0.000000 0.000000 0.000000 -0.000000 0.000000 0.000000 6.844245 2.848744 -0.656004 -6.483448 -4.007005 0.131185 0.000000 0.000000 0.000000 0.000000 0.000000 0.000000 -0.000000 0.000000 0.000000 -0.000000 0.000000 0.000000 -0.458125 -2.745565 0.393494 -1.539935 5.472414 -0.198913 0.000000 0.000000 0.000000 0.000000 0.000000 0.000000 0.191815 0.077017 -22.794078 -0.000000 0.000000 0.000000 5.895084 -16.794769 -8.210859 0.000000 0.000000 0.000000 0.191815 0.077017 -22.794078 -0.000000 0.000000 0.000000 -8.339673 18.102348 5.860842 0.000000 0.000000 0.000000
-56.883212 81.684690 319.544800 -0.204436 -0.197625 23.216360 0.265786 0.101031 -23.216947 -0.000000 0.000000 0.000000 -0.000000 0.000000 0.000000 0.000000 0.000000 0.000000 0.393600 -0.829271 0.073107 -1.222062 0.370267 0.042322 10.341317 4.662301 -1.237868 -9.001007 -5.787260 0.122668 0.000000 0.000000 0.000000 0.000000 0.000000 0.000000 -0.000000 0.000000 0.000000 -0.000000 0.000000 0.000000 -0.644670 -3.525422 0.502615 -1.974327 7.363849 -0.181026 0.000000 0.000000 0.000000 0.000000 0.000000 0.000000 1.064570 0.482373 -23.053762 -0.585704 -0.663646 -0.170643 7.992812 -25.063552 -11.818134 0.000000 0.000000 0.000000 0.265786 0.101031 -23.216947 -0.000000 0.000000 0.000000 -11.337571 23.158168 8.244725 0.000000 0.000000 0.000000
-56.895554 81.667492 319.602739 -0.251135 -0.236339 23.566271 0.324681 0.116219 -23.567118 -0.000000 0.000000 0.000000 -0.000000 0.000000 0.000000 0.000000 0.000000 0.000000 0.548911 -0.971696 0.094065 -1.540156 0.481960 0.049199 12.597168 6.014782 -1.698128 -10.979185 -7.402197 0.086526 0.000000 0.000000 0.000000 0.000000 0.000000 0.000000 -0.000000 0.000000 0.000000 -0.000000 0.000000 0.000000 -0.808998 -3.935605 0.560184 -2.185736 8.713790 -0.132518 0.000000 0.000000 0.000000 0.000000 0.000000 0.000000 1.278249 0.592211 -23.373606 -0.686556 -0.815164 -0.204291 9.289469 -31.438762 -14.572025 0.000000 0.000000 0.000000 0.324681 0.116219 -23.567118 -0.000000 0.000000 0.000000 -13.564373 26.445890 10.080898 0.000000 0.000000 0.000000
-56.898786 81.645510 319.644404 -0.287082 -0.261446 23.843840 0.368268 0.123077 -23.844891 -0.000000 0.000000 0.000000 -0.000000 0.000000 0.000000 0.000000 0.000000 0.000000 0.716134 -1.046052 0.112911 -1.817258 0.583953 0.051283 14.207548 7.265185 -2.123793 -12.396415 -8.846797 0.042404 0.000000 0.000000 0.000000 0.000000 0.000000 0.000000 -0.000000 0.000000 0.000000 -0.712305 0.621680 0.160349 -0.254652 -4.609621 0.406165 -2.172703 9.534781 -0.073373 0.000000 0.000000 0.000000 0.000000 0.000000 0.000000 1.423398 0.681875 -23.631791 -0.742762 -0.934797 -0.226571 9.890486 -35.061561 -16.216395 0.000000 0.000000 0.000000 0.368268 0.123077 -23.844891 -0.000000 0.000000 0.000000 -15.078193 28.433155 11.358540 0.000000 0.000000 0.000000
-56.891936 81.611875 319.675178 -0.309954 -0.264948 24.039505 0.391001 0.115699 -24.040617 -0.000000 0.000000 0.000000 -0.000000 0.000000 0.000000 0.000000 0.000000 0.000000 1.058037 -1.092777 0.146276 -2.376289 0.911538 0.061861 15.444252 9.342052 -2.736531 -13.501789 -10.554351 0.089604 0.000000 0.000000 0.000000 0.000000 0.000000 0.000000 -0.000000 0.000000 0.000000 -0.829689 0.729810 0.187875 0.007968 -3.578315 0.228976 -1.471845 9.405584 0.080980 0.000000 0.000000 0.000000 0.000000 0.000000 0.000000 1.490225 0.709433 -23.819060 -0.765949 -0.986976 -0.236069 9.713879 -33.233574 -14.013321 0.000000 0.000000 0.000000 0.391001 0.115699 -24.040617 -0.000000 0.000000 0.000000 -16.262367 30.511548 12.323883 0.000000 0.000000 0.000000
-56.868581 81.577528 319.660513 -0.312205 -0.235502 24.079045 0.381122 0.087628 -24.079978 -0.000000 0.000000 0.000000 -0.000000 0.000000 0.000000 0.000000 0.000000 0.000000 1.290358 -1.025431 0.163412 -2.584742 1.102536 0.047520 15.573923 10.607069 -3.046807 -13.075156 -11.882516 0.072840 0.000000 0.000000 0.000000 0.000000 0.000000 0.000000 -0.000000 0.000000 0.000000 -0.939735 0.845804 0.214856 -0.088653 -2.566676 0.060209 -1.087957 8.607380 0.205511 0.000000 0.000000 0.000000 0.000000 0.000000 0.000000 1.446424 0.689952 -23.864653 -0.730658 -0.981728 -0.228814 8.748619 -28.816979 -14.572127 0.000000 0.000000 0.000000 0.381122 0.087628 -24.079978 -0.000000 0.000000 0.000000 -14.418078 26.571229 10.878485 0.000000 0.000000 0.000000
-56.838981 81.546778 319.644581 -0.315417 -0.225438 24.159160 0.380055 0.076598 -24.160034 -0.000000 0.000000 0.000000 0.389967 0.647489 0.316796 0.000000 0.000000 0.000000 1.384058 -0.932105 0.166388 -2.538523 1.233938 0.025769 15.175463 11.147041 -3.120898 -13.452339 -14.198557 -0.043982 0.000000 0.000000 0.000000 0.000000 0.000000 0.000000 -0.000000 0.000000 0.000000 -1.060749 0.950758 0.243240 -0.315364 -2.043200 -0.038400 -0.463826 7.913845 0.239190 0.000000 0.000000 0.000000 0.000000 0.000000 0.000000 1.376288 0.758915 -23.958297 -0.633450 -1.027987 -0.214684 7.384069 -22.378625 -11.412437 0.000000 0.000000 0.000000 0.380055 0.076598 -24.160034 -0.000000 0.000000 0.000000 -14.354058 26.911016 10.791253 0.000000 0.000000 0.000000
-56.816880 81.521052 319.601787 -0.323998 -0.221245 24.168624 0.386180 0.069196 -24.169482 -0.000000 0.000000 0.000000 0.443616 0.649204 0.322931 0.000000 0.000000 0.000000 1.398089 -0.716555 0.155033 -2.317105 1.080286 -0.004579 13.836877 10.997722 -2.918399 -13.186907 -13.101337 0.168495 0.000000 0.000000 0.000000 0.000000 0.000000 0.000000 -0.000000 0.000000 0.000000 -1.185284 1.068925 0.273377 -0.132600 -2.029142 -0.085171 -0.240379 7.592708 0.235820 0.000000 0.000000 0.000000 0.000000 0.000000 0.000000 1.267664 0.843433 -23.990144 -0.490657 -1.065682 -0.190922 8.197466 -25.977942 -12.040012 0.000000 0.000000 0.000000 0.386180 0.069196 -24.169482 -0.000000 0.000000 0.000000 -12.966860 22.317158 9.853737 0.000000 0.000000 0.000000
-56.807861 81.499353 319.581440 -0.342804 -0.222469 24.275809 0.403956 0.061857 -24.276692 -0.000000 0.000000 0.000000 0.498506 0.622840 0.317293 0.000000 0.000000 0.000000 1.272200 -0.429963 0.127608 -1.271276 0.432689 -0.118034 11.071910 10.066245 -2.374227 -9.453001 -10.293110 0.324290 0.000000 0.000000 0.000000 0.000000 0.000000 0.000000 -0.000000 0.000000 0.000000 -1.257998 1.134528 0.290853 0.168665 -2.467634 -0.059119 -0.875050 7.718612 0.199978 0.000000 0.000000 0.000000 0.000000 0.000000 0.000000 1.300603 0.910823 -24.094513 -0.472064 -1.140978 -0.194491 8.543807 -27.286670 -9.669255 0.000000 0.000000 0.000000 0.403956 0.061857 -24.276692 -0.000000 0.000000 0.000000 -11.926679 18.481948 9.205084 0.000000 0.000000 0.000000
-56.791695 81.496764 319.545940 -0.364685 -0.242947 24.306378 0.432359 0.071297 -24.307420 -0.000000 0.000000 0.000000 0.512170 0.573700 0.297865 0.000000 0.000000 0.000000 0.975027 -0.118216 0.085350 -0.974852 0.119651 -0.083326 9.656170 10.275946 -2.249466 -7.640197 -10.207087 0.423475 0.000000 0.000000 0.000000 0.000000 0.000000 0.000000 -0.000000 0.000000 0.000000 -1.432047 1.151349 0.323043 0.451503 -2.878437 -0.039168 -0.476372 7.509202 0.097767 0.000000 0.000000 0.000000 0.000000 0.000000 0.000000 1.305640 0.985168 -24.130011 -0.423502 -1.190954 -0.189862 8.226719 -26.032736 -10.096384 0.000000 0.000000 0.000000 0.432359 0.071297 -24.307420 -0.000000 0.000000 0.000000 -11.139484 15.976118 8.692454 0.000000 0.000000 0.000000
-56.762685 81.506328 319.510784 -0.374530 -0.284406 24.156776 0.458122 0.106224 -24.158131 -0.000000 0.000000 0.000000 -0.000000 0.000000 0.000000 0.000000 0.000000 0.000000 0.781421 -0.264508 0.077263 -0.781072 0.265536 -0.073649 8.331223 10.090780 -2.058510 -5.602285 -9.766901 0.461016 0.000000 0.000000 0.000000 0.000000 0.000000 0.000000 -0.000000 0.000000 0.000000 -1.630642 1.234369 0.364488 0.468256 -3.899832 0.047287 -0.661455 6.851976 -0.133910 0.000000 0.000000 0.000000 0.000000 0.000000 0.000000 1.282491 1.083482 -23.990200 -0.355944 -1.227947 -0.180304 7.130091 -21.484131 -9.934311 0.000000 0.000000 0.000000 0.458122 0.106224 -24.158131 -0.000000 0.000000 0.000000 -10.670604 15.134657 8.330935 0.000000 0.000000 0.000000
